{
	"asset":{
		"generator":"Khronos glTF Blender I/O v4.3.47",
		"version":"2.0"
	},
	"scene":0,
	"scenes":[
		{
			"name":"Scene",
			"nodes":[
				4
			]
		}
	],
	"nodes":[
		{
			"mesh":0,
			"name":"Cube.002_body_0.001",
			"translation":[
				-0.3238392770290375,
				-0.25060656666755676,
				-0.019275769591331482
			]
		},
		{
			"children":[
				0
			],
			"name":"Cube.002",
			"rotation":[
				0.70710688829422,
				0,
				0,
				0.7071066498756409
			],
			"scale":[
				100,
				65.0425033569336,
				42.372291564941406
			],
			"translation":[
				0,
				0,
				18.180742263793945
			]
		},
		{
			"children":[
				1
			],
			"name":"RootNode"
		},
		{
			"children":[
				2
			],
			"name":"cardpack2.fbx",
			"rotation":[
				0.70710688829422,
				0,
				0,
				0.7071066498756409
			],
			"scale":[
				0.009999999776482582,
				0.010000000707805157,
				0.010000000707805157
			]
		},
		{
			"children":[
				3
			],
			"name":"Sketchfab_model",
			"rotation":[
				-0.70710688829422,
				0,
				0,
				0.7071066498756409
			]
		}
	],
	"materials":[
		{
			"doubleSided":true,
			"name":"body",
			"normalTexture":{
				"index":0,
				"scale":0.2179054319858551
			},
			"pbrMetallicRoughness":{
				"baseColorTexture":{
					"index":1
				},
				"metallicFactor":0.8396216034889221,
				"roughnessFactor":0.1508575975894928
			}
		}
	],
	"meshes":[
		{
			"name":"Cube.002_body_0.001",
			"primitives":[
				{
					"attributes":{
						"POSITION":0,
						"NORMAL":1,
						"TEXCOORD_0":2
					},
					"indices":3,
					"material":0
				}
			]
		}
	],
	"textures":[
		{
			"sampler":0,
			"source":0
		},
		{
			"sampler":0,
			"source":1
		}
	],
	"images":[
		{
			"mimeType":"image/png",
			"name":"body_normal",
			"uri":"body_normal.png"
		},
		{
			"mimeType":"image/png",
			"name":"body_baseColor",
			"uri":"body_baseColor.png"
		}
	],
	"accessors":[
		{
			"bufferView":0,
			"componentType":5126,
			"count":731,
			"max":[
				1.3716691732406616,
				0.9083400368690491,
				0.12277122586965561
			],
			"min":[
				1.1429836750030518,
				-1.1173371076583862,
				-0.03045232594013214
			],
			"type":"VEC3"
		},
		{
			"bufferView":1,
			"componentType":5126,
			"count":731,
			"type":"VEC3"
		},
		{
			"bufferView":2,
			"componentType":5126,
			"count":731,
			"type":"VEC2"
		},
		{
			"bufferView":3,
			"componentType":5123,
			"count":2898,
			"type":"SCALAR"
		}
	],
	"bufferViews":[
		{
			"buffer":0,
			"byteLength":8772,
			"byteOffset":0,
			"target":34962
		},
		{
			"buffer":0,
			"byteLength":8772,
			"byteOffset":8772,
			"target":34962
		},
		{
			"buffer":0,
			"byteLength":5848,
			"byteOffset":17544,
			"target":34962
		},
		{
			"buffer":0,
			"byteLength":5796,
			"byteOffset":23392,
			"target":34963
		}
	],
	"samplers":[
		{
			"magFilter":9729,
			"minFilter":9987
		}
	],
	"buffers":[
		{
			"byteLength":29188,
			"uri":"cardpacktop.bin"
		}
	]
}
