{
	"asset":{
		"generator":"Khronos glTF Blender I/O v4.3.47",
		"version":"2.0"
	},
	"scene":0,
	"scenes":[
		{
			"name":"Scene",
			"nodes":[
				4
			]
		}
	],
	"nodes":[
		{
			"mesh":0,
			"name":"Cube.002_body_0",
			"translation":[
				-0.06270842254161835,
				-0.26262393593788147,
				0.027909686788916588
			]
		},
		{
			"children":[
				0
			],
			"name":"Cube.002",
			"rotation":[
				0.70710688829422,
				0,
				0,
				0.7071066498756409
			],
			"scale":[
				100,
				65.0425033569336,
				42.372291564941406
			],
			"translation":[
				0,
				0,
				18.180742263793945
			]
		},
		{
			"children":[
				1
			],
			"name":"RootNode"
		},
		{
			"children":[
				2
			],
			"name":"cardpack2.fbx",
			"rotation":[
				0.70710688829422,
				0,
				0,
				0.7071066498756409
			],
			"scale":[
				0.009999999776482582,
				0.010000000707805157,
				0.010000000707805157
			]
		},
		{
			"children":[
				3
			],
			"name":"Sketchfab_model",
			"rotation":[
				-0.70710688829422,
				0,
				0,
				0.7071066498756409
			]
		}
	],
	"materials":[
		{
			"doubleSided":true,
			"name":"body",
			"normalTexture":{
				"index":0,
				"scale":0.2179054319858551
			},
			"pbrMetallicRoughness":{
				"baseColorTexture":{
					"index":1
				},
				"metallicFactor":0.8396216034889221,
				"roughnessFactor":0.1508575975894928
			}
		}
	],
	"meshes":[
		{
			"name":"Cube.002_body_0",
			"primitives":[
				{
					"attributes":{
						"POSITION":0,
						"NORMAL":1,
						"TEXCOORD_0":2
					},
					"indices":3,
					"material":0
				}
			]
		}
	],
	"textures":[
		{
			"sampler":0,
			"source":0
		},
		{
			"sampler":0,
			"source":1
		}
	],
	"images":[
		{
			"mimeType":"image/png",
			"name":"body_normal",
			"uri":"body_normal.png"
		},
		{
			"mimeType":"image/png",
			"name":"body_baseColor",
			"uri":"body_baseColor.png"
		}
	],
	"accessors":[
		{
			"bufferView":0,
			"componentType":5126,
			"count":10063,
			"max":[
				0.8926598429679871,
				0.9191580414772034,
				0.1340360790491104
			],
			"min":[
				-1.401000738143921,
				-1.106519103050232,
				-0.13403615355491638
			],
			"type":"VEC3"
		},
		{
			"bufferView":1,
			"componentType":5126,
			"count":10063,
			"type":"VEC3"
		},
		{
			"bufferView":2,
			"componentType":5126,
			"count":10063,
			"type":"VEC2"
		},
		{
			"bufferView":3,
			"componentType":5123,
			"count":53757,
			"type":"SCALAR"
		}
	],
	"bufferViews":[
		{
			"buffer":0,
			"byteLength":120756,
			"byteOffset":0,
			"target":34962
		},
		{
			"buffer":0,
			"byteLength":120756,
			"byteOffset":120756,
			"target":34962
		},
		{
			"buffer":0,
			"byteLength":80504,
			"byteOffset":241512,
			"target":34962
		},
		{
			"buffer":0,
			"byteLength":107514,
			"byteOffset":322016,
			"target":34963
		}
	],
	"samplers":[
		{
			"magFilter":9729,
			"minFilter":9987
		}
	],
	"buffers":[
		{
			"byteLength":429532,
			"uri":"cardpacktop.bin"
		}
	]
}
